<svg version="1.1" viewBox="0 0 96 96" xmlns="http://www.w3.org/2000/svg" xmlns:xlink="http://www.w3.org/1999/xlink" id="Icons_QuestionMark" overflow="hidden"><style>
.MsftOfcThm_Accent6_Fill {
 fill:#70AD47; 
}
</style>
<circle cx="48" cy="78.44" r="6.62" stroke="none" stroke-width="1" stroke-linecap="butt" fill="#70AD47" fill-opacity="1"/><path d=" M 52 54.35 L 52 67 L 44 67 L 44 46.68 L 48 46.68 C 56.84 46.68 62.56 41.48 62.56 33.44 C 62.7388 25.5775 56.5099 19.0588 48.6474 18.88 C 48.4316 18.8751 48.2158 18.8751 48 18.88 C 38.88 18.88 33.44 24.88 33.44 34 L 25.5 34 C 25.5 20.54 34.5 10.94 48 10.94 C 60.2931 10.8067 70.3667 20.6642 70.5 32.9574 C 70.5017 33.1182 70.5017 33.2791 70.5 33.44 C 70.5 44.63 63.1 52.79 52 54.35 Z" stroke="none" stroke-width="1" stroke-linecap="butt" fill="#70AD47" fill-opacity="1"/></svg>